<svg id="visual" viewBox="0 0 250 250" width="250" height="250" xmlns="http://www.w3.org/2000/svg" xmlns:xlink="http://www.w3.org/1999/xlink" version="1.1"><g transform="translate(128.78840009452477 115.94492774689968)"><path d="M66.7 -85.8C84.7 -78.6 96.6 -56.9 99.6 -35.3C102.7 -13.6 97 8 89.5 28.5C82 48.9 72.8 68.1 57.5 83C42.3 97.9 21.2 108.5 1.3 106.7C-18.6 105 -37.2 90.9 -57 77.5C-76.9 64.1 -97.9 51.4 -105 33.2C-112.2 15 -105.6 -8.5 -95.7 -28.7C-85.9 -48.9 -72.9 -65.7 -56.5 -73.4C-40 -81.1 -20 -79.6 2.2 -82.6C24.3 -85.5 48.6 -92.9 66.7 -85.8" fill="#ffffff"></path></g></svg>