<svg id="visual" viewBox="0 0 250 250" width="250" height="250" xmlns="http://www.w3.org/2000/svg" xmlns:xlink="http://www.w3.org/1999/xlink" version="1.1"><g transform="translate(138.0655161638265 119.64176720122282)"><path d="M61.3 -86.4C73.7 -75.5 73.9 -49.8 77.2 -27.9C80.5 -6 86.9 12.2 83.8 29C80.7 45.8 68.3 61.3 52.8 76.6C37.2 91.9 18.6 107 1.7 104.7C-15.3 102.4 -30.6 82.8 -48.5 68.3C-66.4 53.8 -87 44.4 -98.8 27.5C-110.6 10.6 -113.8 -13.7 -107.8 -36C-101.9 -58.2 -86.8 -78.5 -67.3 -87.1C-47.8 -95.8 -23.9 -92.9 0.3 -93.3C24.5 -93.7 49 -97.4 61.3 -86.4" fill="#ffffff"></path></g></svg>