<svg id="visual" viewBox="0 0 250 250" width="250" height="250" xmlns="http://www.w3.org/2000/svg" xmlns:xlink="http://www.w3.org/1999/xlink" version="1.1"><g transform="translate(121.28677495908033 126.64530894412357)"><path d="M62.9 -83.8C82.7 -72.2 100.8 -55.4 102.4 -36.6C104 -17.7 89.2 3.2 79.7 24C70.3 44.7 66.3 65.2 53.9 78C41.5 90.8 20.8 95.9 -1.8 98.3C-24.3 100.8 -48.6 100.5 -65.7 89.3C-82.8 78 -92.8 55.7 -94.7 34.4C-96.7 13.1 -90.7 -7.2 -85.1 -28.7C-79.5 -50.2 -74.5 -72.8 -60.3 -86.2C-46.2 -99.6 -23.1 -103.8 -0.8 -102.7C21.6 -101.7 43.1 -95.3 62.9 -83.8" fill="#ffffff"></path></g></svg>