<svg id="visual" viewBox="0 0 250 250" width="250" height="250" xmlns="http://www.w3.org/2000/svg" xmlns:xlink="http://www.w3.org/1999/xlink" version="1.1"><g transform="translate(120.28119496600972 118.72024652553878)"><path d="M64.5 -83.6C84.3 -74.4 101.6 -56.5 108.3 -35.3C115.1 -14.1 111.3 10.4 101.7 31C92.2 51.6 77 68.3 59.1 81.8C41.1 95.3 20.6 105.6 -1.7 107.9C-23.9 110.2 -47.8 104.5 -67.3 91.5C-86.8 78.5 -101.9 58.2 -102.3 37.8C-102.8 17.3 -88.5 -3.4 -81.2 -26.5C-73.8 -49.5 -73.4 -74.9 -61 -86.6C-48.6 -98.2 -24.3 -96.1 -1 -94.8C22.3 -93.4 44.7 -92.8 64.5 -83.6" fill="#ffffff"></path></g></svg>