<svg id="visual" viewBox="0 0 250 250" width="250" height="250" xmlns="http://www.w3.org/2000/svg" xmlns:xlink="http://www.w3.org/1999/xlink" version="1.1"><g transform="translate(127.23130830526182 124.04636852187838)"><path d="M61.6 -87.1C78.8 -72.2 91.3 -52.9 92.6 -33.7C93.9 -14.4 84.1 4.9 77.8 25.6C71.5 46.3 68.7 68.5 56.3 85.3C43.9 102.1 21.9 113.5 0.7 112.6C-20.6 111.6 -41.1 98.3 -54 81.6C-66.8 65 -71.9 45 -80.2 24.8C-88.4 4.6 -99.9 -15.8 -96.6 -33.1C-93.4 -50.5 -75.5 -64.9 -56.9 -79.4C-38.4 -93.9 -19.2 -108.4 1.5 -110.5C22.1 -112.5 44.3 -101.9 61.6 -87.1" fill="#ffffff"></path></g></svg>