<svg id="visual" viewBox="0 0 250 250" width="250" height="250" xmlns="http://www.w3.org/2000/svg" xmlns:xlink="http://www.w3.org/1999/xlink" version="1.1"><g transform="translate(111.40632297726862 112.97473027323316)"><path d="M57 -74C73.6 -66.4 86.8 -49.4 96.5 -29.1C106.2 -8.8 112.5 14.9 105.2 33.2C97.9 51.4 76.9 64.1 57 77.3C37.2 90.6 18.6 104.3 -2.4 107.5C-23.3 110.8 -46.6 103.5 -60.9 88.5C-75.2 73.5 -80.4 50.6 -81.1 30.6C-81.8 10.5 -78.1 -6.8 -75.1 -27C-72.1 -47.1 -69.8 -70.1 -57.4 -79C-45.1 -88 -22.5 -83 -1.2 -81.4C20.2 -79.8 40.4 -81.6 57 -74" fill="#ffffff"></path></g></svg>